<svg width="21" height="17" viewBox="0 0 21 17" fill="none" xmlns="http://www.w3.org/2000/svg">
<path fill-rule="evenodd" clip-rule="evenodd" d="M6.21809 2C5.35409 2 4.54409 2.334 3.93809 2.941C2.68009 4.201 2.68009 6.252 3.93909 7.514L10.9981 14.585L18.0581 7.514C19.3171 6.252 19.3171 4.201 18.0581 2.941C16.8461 1.726 14.7101 1.728 13.4981 2.941L11.7061 4.736C11.3301 5.113 10.6661 5.113 10.2901 4.736L8.49809 2.94C7.89209 2.334 7.08309 2 6.21809 2ZM10.9981 17C10.7331 17 10.4781 16.895 10.2911 16.706L2.52309 8.926C0.487094 6.886 0.487094 3.567 2.52309 1.527C3.50709 0.543 4.81909 0 6.21809 0C7.61709 0 8.93009 0.543 9.91309 1.527L10.9981 2.614L12.0831 1.528C13.0671 0.543 14.3791 0 15.7791 0C17.1771 0 18.4901 0.543 19.4731 1.527C21.5101 3.567 21.5101 6.886 19.4741 8.926L11.7061 16.707C11.5181 16.895 11.2641 17 10.9981 17Z" fill="#4F4F4F"/>
</svg>
